# xmcd
#
# Track frame offsets:
#	182
#	14090
#	27512
#	40925
#	55025
#	69132
#	81122
#	94502
#	108605
#	121377
#	133637
#	146167
#	158527
#	170362
#	182712
#	195630
#	207770
#	220062
#
# Disc length: 3100 seconds
#
# Revision: 0
# Processed by: cddbd v1.5.2PL0 Copyright (c) Steve Scherf et al.
# Submitted via: EasyCDDAExtractor 11.5.3.1
#
DISCID=f70c1a12
DTITLE=Jimmy Yancey - Master of Boggie
DYEAR=1939
DGENRE=Bloogie
TTITLE0=La Salle Street Breakdown
TTITLE1=Two O'Clock Blues
TTITLE2=Janie's Joys
TTITLE3=Lean Bacon
TTITLE4=Lucille's Lament
TTITLE5=Rolling The Stone
TTITLE6=Steady Rock Blues
TTITLE7=South Side Stuff
TTITLE8=Yancey Stomp
TTITLE9=State Street Special
TTITLE10=Tell'em About Me
TTITLE11=Five O'Clock Blues
TTITLE12=Slow And Easy Blues
TTITLE13=The Mellow Blues
TTITLE14=Bear Trap Blues
TTITLE15=Old Quaker Blues
TTITLE16=35th And Dearborn
TTITLE17=Yancey's Bugle Call
EXTD=
EXTT0=
EXTT1=
EXTT2=
EXTT3=
EXTT4=
EXTT5=
EXTT6=
EXTT7=
EXTT8=
EXTT9=
EXTT10=
EXTT11=
EXTT12=
EXTT13=
EXTT14=
EXTT15=
EXTT16=
EXTT17=
PLAYORDER=
